
<svg height="100%" stroke-miterlimit="10" style="fill-rule:nonzero;clip-rule:evenodd;stroke-linecap:round;stroke-linejoin:round;" version="1.1" viewBox="0 0 512 512" width="100%" xml:space="preserve" xmlns="http://www.w3.org/2000/svg">
    <g>
        <path d="M174.545 302.545L81.455 302.545C74.473 302.545 69.819 307.2 69.819 314.181C69.819 321.162 74.474 325.817 81.455 325.817L174.546 325.817C181.528 325.817 186.182 321.162 186.182 314.181C186.182 307.2 181.527 302.545 174.545 302.545Z" fill="#ffffff" fill-rule="evenodd" opacity="0.73" stroke="none"/>
        <path d="M139.636 244.364L46.545 244.364C39.563 244.364 34.909 249.019 34.909 256C34.909 262.981 39.564 267.636 46.545 267.636L139.636 267.636C146.618 267.636 151.272 262.981 151.272 256C151.272 249.019 146.618 244.364 139.636 244.364Z" fill="#ffffff" fill-rule="evenodd" opacity="0.73" stroke="none"/>
        <path d="M104.727 186.182L11.636 186.182C4.655 186.182 0 190.836 0 197.818C0 204.8 4.655 209.454 11.636 209.454L104.727 209.454C111.709 209.454 116.363 204.799 116.363 197.818C116.363 190.837 111.709 186.182 104.727 186.182Z" fill="#ffffff" fill-rule="evenodd" opacity="0.73" stroke="none"/>
        <path d="M463.127 155.927C459.636 151.272 451.491 150.109 446.836 153.6L323.491 247.855C310.691 257.164 293.236 257.164 280.436 247.855L157.091 153.6C152.436 150.109 144.291 150.109 140.8 155.927C137.309 160.582 137.309 168.727 143.127 172.218L267.636 266.473C278.109 274.618 290.909 278.109 302.545 278.109C314.181 278.109 328.145 274.618 337.454 266.473L460.8 172.218C465.455 168.727 466.618 160.582 463.127 155.927Z" fill="#ffffff" fill-rule="evenodd" opacity="0.73" stroke="none"/>
        <path d="M477.091 104.727L104.727 104.727C97.745 104.727 93.091 109.382 93.091 116.363C93.091 123.344 97.745 128 104.727 128L477.091 128C484.073 128 488.727 132.655 488.727 139.636L488.727 372.363C488.727 379.345 484.072 383.999 477.091 383.999L104.727 383.999C97.745 383.999 93.091 388.654 93.091 395.635C93.091 402.617 97.746 407.271 104.727 407.271L477.091 407.271C496.873 407.271 512 392.144 512 372.362L512 139.636C512 119.855 496.873 104.727 477.091 104.727Z" fill="#ffffff" fill-rule="evenodd" opacity="0.73" stroke="none"/>
        <path d="M461.964 340.945L392.146 271.127C387.491 266.472 380.51 266.472 375.855 271.127C371.2 275.782 371.2 282.763 375.855 287.418L445.673 357.236C448 359.563 451.491 360.727 453.818 360.727C456.145 360.727 459.636 359.563 461.964 357.236C466.618 352.582 466.618 345.6 461.964 340.945Z" fill="#ffffff" fill-rule="evenodd" opacity="0.73" stroke="none"/>
    </g>
</svg>
